<?xml version="1.0" standalone="no"?>
<!DOCTYPE svg PUBLIC "-//W3C//DTD SVG 20010904//EN"
 "http://www.w3.org/TR/2001/REC-SVG-20010904/DTD/svg10.dtd">
<svg version="1.0" xmlns="http://www.w3.org/2000/svg"
 width="512.000000pt" height="512.000000pt" viewBox="0 0 512.000000 512.000000"
 preserveAspectRatio="xMidYMid meet">
<metadata>
Created by potrace 1.11, written by Peter Selinger 2001-2013
</metadata>
<g transform="translate(0.000000,512.000000) scale(0.100000,-0.100000)"
fill="#000000" stroke="none">
<path d="M2315 4994 c-189 -27 -259 -40 -374 -70 -309 -80 -595 -219 -859
-416 -125 -93 -377 -345 -470 -470 -240 -321 -395 -681 -463 -1073 -30 -170
-37 -531 -15 -705 57 -436 216 -827 478 -1178 93 -125 345 -377 470 -470 329
-246 692 -400 1103 -469 158 -26 592 -26 750 0 291 49 568 144 809 280 673
376 1119 1023 1238 1797 21 135 17 578 -5 715 -86 511 -309 959 -662 1324
-302 313 -703 550 -1117 660 -224 60 -330 74 -603 76 -137 2 -263 1 -280 -1z
m635 -112 c247 -45 419 -101 645 -212 719 -350 1218 -1059 1304 -1852 14 -125
14 -391 0 -516 -118 -1086 -995 -1963 -2081 -2081 -125 -14 -391 -14 -516 0
-793 86 -1502 585 -1852 1304 -112 230 -175 424 -217 673 -26 153 -26 571 0
724 113 669 481 1237 1043 1608 288 190 621 314 979 365 153 21 545 14 695
-13z"/>
<path d="M3005 4805 c-124 -43 -132 -199 -13 -261 117 -61 250 87 176 196 -45
66 -99 87 -163 65z m74 -99 c7 -8 11 -27 9 -43 -2 -22 -9 -29 -31 -31 -50 -6
-75 38 -41 72 19 20 48 20 63 2z"/>
<path d="M1665 4685 c-124 -43 -132 -199 -13 -261 117 -61 250 87 176 196 -45
66 -99 87 -163 65z m74 -99 c7 -8 11 -27 9 -43 -2 -22 -9 -29 -31 -31 -50 -6
-75 38 -41 72 19 20 48 20 63 2z"/>
<path d="M2305 4525 c-672 -95 -1233 -499 -1526 -1101 -179 -367 -241 -804
-170 -1204 90 -514 378 -968 808 -1276 580 -416 1361 -480 2007 -165 621 302
1032 892 1107 1586 15 142 6 386 -20 535 -143 819 -788 1465 -1611 1612 -150
26 -452 33 -595 13z m630 -119 c755 -160 1324 -737 1477 -1496 20 -101 23
-144 23 -350 0 -206 -3 -249 -23 -350 -155 -768 -734 -1347 -1502 -1502 -101
-20 -144 -23 -350 -23 -206 0 -249 3 -350 23 -761 154 -1335 721 -1498 1482
-25 116 -26 142 -26 370 0 228 1 254 26 370 162 752 736 1327 1473 1475 168
33 165 33 410 30 191 -3 236 -6 340 -29z"/>
<path d="M2466 4126 c-21 -13 -49 -41 -62 -62 -24 -39 -24 -43 -24 -320 l0
-282 -47 -12 c-68 -16 -184 -64 -233 -95 l-42 -27 -202 200 c-173 172 -207
202 -245 212 -120 32 -231 -54 -231 -179 0 -27 5 -62 11 -78 6 -15 98 -116
206 -224 l195 -196 -27 -43 c-31 -49 -79 -165 -95 -232 l-12 -48 -274 0 c-168
0 -283 -4 -301 -11 -35 -13 -80 -55 -99 -92 -40 -76 -3 -191 74 -235 39 -21
48 -22 320 -22 l280 0 12 -47 c16 -67 58 -168 92 -227 l29 -49 -195 -196
c-107 -108 -199 -209 -205 -224 -6 -16 -11 -51 -11 -78 0 -125 111 -211 231
-179 38 10 72 40 245 212 l201 199 49 -29 c59 -34 160 -76 226 -92 l47 -12 3
-292 3 -293 29 -37 c51 -67 138 -92 213 -61 48 20 71 41 94 87 17 34 19 62 19
316 l0 278 78 23 c42 12 115 42 162 66 l84 45 201 -199 c172 -171 206 -201
244 -211 121 -32 231 54 231 180 0 28 -7 65 -16 83 -9 18 -101 118 -205 222
l-189 190 44 85 c25 47 55 120 67 163 l23 77 272 0 c168 0 283 4 301 11 34 13
80 55 99 91 39 75 2 193 -74 236 -39 21 -48 22 -320 22 l-280 0 -12 48 c-16
66 -58 167 -92 226 l-29 49 189 191 c105 105 197 205 206 223 9 18 16 55 16
83 0 126 -110 212 -231 180 -38 -10 -72 -40 -245 -212 l-201 -199 -49 29 c-59
34 -160 76 -226 92 l-48 12 0 274 c0 168 -4 283 -11 301 -13 34 -55 80 -91 99
-43 22 -127 18 -172 -10z m128 -76 c52 -19 57 -46 54 -321 l-3 -251 -85 0 -85
0 -3 249 c-3 267 1 293 47 318 31 17 42 18 75 5z m-996 -414 c15 -8 106 -94
202 -190 l175 -176 -63 -62 -62 -63 -180 180 c-98 98 -184 192 -191 207 -15
36 3 83 40 103 33 18 46 18 79 1z m2001 -1 c41 -21 56 -63 38 -106 -8 -19 -94
-113 -191 -209 l-176 -175 -62 63 -63 62 170 171 c164 165 215 209 243 209 7
0 26 -7 41 -15z m-875 -270 c287 -59 524 -271 618 -555 31 -90 32 -102 32
-250 0 -148 -1 -160 -32 -250 -84 -252 -275 -444 -532 -532 -92 -31 -101 -33
-250 -32 -147 0 -160 1 -250 32 -284 94 -496 331 -555 618 -90 437 196 873
636 969 86 18 243 18 333 0z m-1082 -805 l0 -85 -249 -3 c-271 -3 -294 1 -319
50 -21 42 -10 85 29 109 30 18 50 19 285 17 l254 -3 0 -85z m2367 75 c40 -20
57 -66 41 -105 -24 -57 -43 -61 -321 -58 l-251 3 1 83 c0 45 0 84 1 87 0 3
113 5 250 5 200 0 257 -3 279 -15z m-2094 -725 l60 -60 -180 -180 c-193 -194
-221 -213 -273 -186 -34 18 -57 65 -47 98 7 21 361 388 375 388 3 0 32 -27 65
-60z m1542 -122 c99 -101 184 -193 187 -205 4 -12 0 -37 -8 -56 -19 -46 -71
-66 -113 -43 -15 8 -107 94 -203 190 l-175 176 60 60 c33 33 62 60 65 60 3 0
87 -82 187 -182z m-809 -395 c3 -271 -1 -294 -50 -319 -42 -22 -85 -10 -109
29 -17 29 -19 53 -19 283 0 138 2 253 4 255 2 2 42 3 88 2 l83 -1 3 -249z"/>
<path d="M2471 2884 c-71 -19 -110 -44 -165 -105 -119 -132 -108 -340 25 -466
131 -123 342 -118 467 11 183 188 98 495 -155 561 -70 18 -102 18 -172 -1z
m215 -120 c132 -81 153 -263 43 -373 -53 -53 -112 -75 -188 -69 -240 17 -305
343 -89 452 74 38 163 34 234 -10z"/>
<path d="M4125 4145 c-124 -43 -132 -199 -13 -261 117 -61 250 87 176 196 -45
66 -99 87 -163 65z m74 -99 c7 -8 11 -27 9 -43 -2 -22 -9 -29 -31 -31 -50 -6
-75 38 -41 72 19 20 48 20 63 2z"/>
<path d="M659 3838 c-42 -24 -79 -82 -79 -125 0 -35 33 -87 73 -117 82 -61
212 12 212 119 0 49 -23 87 -75 123 -41 28 -84 28 -131 0z m99 -90 c28 -28 7
-78 -33 -78 -12 0 -26 5 -33 12 -13 13 -16 60 -5 71 11 11 58 8 71 -5z"/>
<path d="M4656 2681 c-91 -60 -90 -189 2 -243 88 -52 212 20 212 122 0 103
-130 176 -214 121z m95 -81 c39 -21 16 -90 -30 -90 -16 0 -41 30 -41 50 0 20
25 50 41 50 6 0 19 -5 30 -10z"/>
<path d="M350 2559 c-64 -26 -108 -101 -95 -159 13 -60 84 -120 141 -120 66 0
144 80 144 147 0 84 -114 164 -190 132z m79 -103 c7 -8 11 -27 9 -43 -6 -51
-88 -41 -88 11 0 42 53 63 79 32z"/>
<path d="M4249 1417 c-45 -30 -71 -82 -65 -130 18 -150 217 -174 271 -32 17
43 17 47 0 90 -33 87 -132 122 -206 72z m102 -77 c29 -16 26 -67 -5 -81 -34
-16 -66 3 -66 41 0 41 33 60 71 40z"/>
<path d="M802 1320 c-18 -11 -41 -34 -52 -52 -55 -91 17 -208 127 -208 80 0
154 96 133 170 -27 95 -128 139 -208 90z m102 -86 c9 -8 16 -24 16 -34 0 -20
-25 -50 -41 -50 -27 0 -49 22 -49 50 0 44 44 65 74 34z"/>
<path d="M3222 640 c-18 -11 -41 -34 -52 -52 -55 -91 17 -208 127 -208 80 0
154 96 133 170 -27 95 -128 139 -208 90z m102 -86 c9 -8 16 -24 16 -34 0 -20
-25 -50 -41 -50 -27 0 -49 22 -49 50 0 44 44 65 74 34z"/>
<path d="M1876 601 c-91 -60 -90 -189 2 -243 88 -52 212 20 212 122 0 103
-130 176 -214 121z m95 -81 c39 -21 16 -90 -30 -90 -16 0 -41 30 -41 50 0 20
25 50 41 50 6 0 19 -5 30 -10z"/>
</g>
</svg>
